<svg version="1" xmlns="http://www.w3.org/2000/svg" width="400" height="400" viewBox="0 0 300.000000 300.000000"><path d="M0 150v150h300V0H0v150zM229.3 28.5C246.5 33 258.7 45.9 262 63c.6 3.4 1 31 .9 75.5-.1 76 0 75.4-5.7 85.8-5.7 10.5-17.1 19.1-29 21.6-3.5.7-19.4 1.1-46.5 1l-41.2-.1 10.5-3.4c18.9-6.2 47.1-11.3 84.5-15.4 10.4-1.2 19.1-2.3 19.3-2.5 1.3-1.3-20.2-7.2-37.3-10.3l-10-1.8 15.1-1.3c8.3-.7 15.7-1.7 16.4-2.1.9-.6 1-3.1.4-11.1l-.9-10.4H235c-1.9.1-8.5.4-14.7.8-13.3.9-12.3 2.2-12.6-14.8l-.2-11 9-.8c5-.5 10.1-1.1 11.4-1.3l2.4-.5-.6-11.6c-.6-11.8-1.3-13.8-4.7-12.9-.8.3-5.6.7-10.7 1.1l-9.2.6-.8-2.8c-.4-1.5-.8-7.5-.8-13.3v-10.5l11.5-.8c18-1.3 16.4-.1 15.7-11.4-.4-5.3-1-10-1.4-10.4-1.2-1.2-54.6 3.1-55.9 4.4-.8.9-.6 6.9.7 21.7.9 11.3 2.9 35.6 4.3 54s2.9 35.6 3.2 38.2l.6 4.8h-12.6l2.7-2.8c6-6.3 6.7-11.6 4.2-34.7-.9-7.7-2.7-24.6-4-37.5-2.7-26-4.2-32.3-8.9-37.1-5.4-5.6-10.7-7.3-22.6-7.3-16.1.1-26.6 3-33.3 9.3-7.6 7-8.3 12.5-5.1 42.4 1.3 13.3 3.2 31.4 4 40.2 2.1 22.8 4.3 28.4 12.7 32.7l4.2 2.1-13 4.2c-13.1 4.3-30 11.2-40.9 16.7-5.9 3-5.9 3-9.8 1.2-5.5-2.5-14.1-11.1-17.2-17.2-5.6-11.1-5.6-10.7-5.6-86.3 0-42.4.4-71.7 1-75 3.1-16.5 16.2-30.4 32.5-34.5 3.7-.9 23.7-1.3 79-1.3 62.6-.1 75 .1 79.8 1.4zm-88.9 89.7c.9 1.5 2.5 13.2 4.5 32.3 4 38.4 4.1 40.3 1.6 42.1-2.9 2.2-7.2 1.8-8.9-.9-.9-1.4-2.5-12.7-4.5-32.2-3.6-34.4-3.8-39.7-1.5-41.9 2.3-2.4 7.1-2 8.8.6z"/><path d="M216.9 32c-1.2.7-2 3.7-2.9 10.7-.6 5.4-1.9 16.3-2.9 24.3s-1.5 14.8-1.2 15.2c.3.3 2.9.4 5.7.1l5.2-.5.6-4.9c.9-6.5 3.5-6.8 5.6-.7 1.5 4.3 1.6 4.3 6.2 4.2 2.6 0 5-.3 5.3-.6.6-.6-6.7-27.6-11.1-41.1-2.5-7.5-2.7-7.7-5.7-7.7-1.8 0-3.9.5-4.8 1zm6.5 28.2c.4 2.4.3 3.8-.4 3.8-.5 0-1-1.9-1-4.2 0-4.9.5-4.7 1.4.4zM194.2 33.9c-1.4.8-1.3 2.6.4 16.6.5 3.9.4 4-1 1.5-.9-1.4-2.5-5.4-3.7-9-1.2-3.6-2.6-7-3.3-7.6-.6-.6-3.2-.9-5.8-.6l-4.8.4v5.1c0 5.5 2.8 38.8 3.6 42.4.3 1.8 1.1 2.3 3.8 2.3 6 0 6.7-.7 6.2-5.9-2.1-19.6-1.9-19.8 3.9-4.7l3.7 9.8 4.5-.5c2.4-.2 4.7-.7 5-1.1.6-.5-2.4-42.8-3.3-47.4-.4-1.8-1.1-2.2-4.2-2.2-2 0-4.3.4-5 .9zM154.6 37.8c-1.2 2.1-6.7 49.4-5.7 50.4.3.4 2.9.4 5.6 0 5-.7 5-.7 5.6-4.9.3-2.4.8-4.6 1.2-4.9 1.3-1.3 3.5.6 4.2 3.5.9 4.4 2.7 5.4 8 4.6 3.7-.5 4.5-1 4.1-2.3-.3-.9-1.7-6-3.2-11.2-1.4-5.2-4.2-14.7-6.1-21-1.9-6.3-3.7-12.3-4-13.3-.4-1.3-1.6-1.7-4.9-1.7-2.3 0-4.5.4-4.8.8zm7.8 29.4c.4 1.7.2 2.8-.4 2.8-.5 0-1-1.4-1-3.2 0-3.6.4-3.5 1.4.4zM131.3 49.7c.7 11.9.5 11.8-4.3-1.7-1.2-3.6-2.6-6.9-3-7.3-.4-.4-3.1-.5-6-.1l-5.2.7.7 9.6c1.3 19.2 3.5 38.5 4.4 39.4.5.5 2.8.6 5.1.2l4.2-.7-.6-10.7c-.7-11.6-.6-11.6 4.4 1.6l3.1 8.3h4.9c2.7 0 5.1-.3 5.4-.8.2-.4-.4-10.4-1.5-22.2-1-11.8-1.8-22.7-1.9-24.3 0-2.6-.2-2.7-5.1-2.7h-5.2l.6 10.7zM94.1 41.9c-1.7.4-2.8 1.7-3.3 3.8-1.1 4.3-5.7 45.6-5.1 46.5.6 1.1 5.7 1 8.7-.2 2.1-.7 2.6-1.6 2.6-4.2 0-7.1 3.8-7.7 5.9-.9 1.2 4.1 1.2 4.1 6.1 4.1 2.7 0 5.1-.4 5.4-.8.3-.5-.4-3.7-1.4-7.3-1-3.5-3.3-11.4-5-17.4-1.7-6.1-4.1-13.9-5.3-17.5-2.3-6.9-3.4-7.6-8.6-6.1zM99.2 71c.3 1.6.1 3-.4 3-.4 0-.8-1.4-.8-3 0-1.7.2-3 .4-3s.6 1.3.8 3zM55.3 45.7c-2.4.2-4.3.8-4.3 1.3 0 .8 1 11.7 3.8 42.5l.7 7 5-.3c7.9-.5 15.6-2.1 18.2-3.7 2-1.4 2.3-2.3 2.3-8 0-7.3-1.2-11.3-4.2-13.6-2-1.5-2-1.8-.4-4 .9-1.3 1.6-4.3 1.6-6.9 0-13.3-4.2-15.9-22.7-14.3zm10.6 8.7c.7.8 1.1 3.4.9 5.8-.2 3.5-.7 4.3-2.3 4.3-1.6 0-2.1-.8-2.3-4.4-.5-6.6 1-8.9 3.7-5.7zm1.9 21.5c2 1.2 2 9.1 0 10.4-2.3 1.5-2.5 1.1-3.3-5.6-.8-5.9 0-6.9 3.3-4.8zM76.5 99c-6.6.4-12 .8-12 .9-.1.2 2.2 32.1 3.4 48.1.6 7.4 1.6 21.8 2.3 31.9l1.2 18.3-2.3 1.9c-1.3 1.1-3.9 1.9-5.8 1.9h-3.6l.7 10.7c.4 6 .9 10.9 1.1 11.1.2.2 7.1-.3 15.4-1.1 14-1.3 15.5-1.6 19.4-4.3 7.3-5.1 8.5-11.5 6.2-33.9-1-8.9-6.5-81.9-6.5-85.1 0-1.5.6-1.5-19.5-.4z"/></svg>